Coordinates
version=1
nRows=38
nColumns=12
inDegrees=yes

Units are S.I. units (second, meters, Newtons, ...)
Angles are in degrees

endheader
time	SC_y	SC_z	SC_x	AC_y	AC_z	AC_x	GH_y	GH_z	GH_yy	EL_x	PS_y
       0.0              -45.44          29.29          49.59          63.74         -8.975          6.409          164.4         -15.39         -60.04          33.85          130.7
   0.03428              -45.44          29.29          49.58          63.74         -8.975          6.408          164.4         -15.39         -60.05          33.86          130.7
   0.06855              -45.44          29.29          49.57          63.73         -8.975          6.407          164.4         -15.39         -60.06          33.88          130.7
    0.1028              -45.44          29.29          49.57          63.73         -8.975          6.405          164.4         -15.39         -60.07          33.89          130.7
    0.1371              -45.44          29.29          49.56          63.72         -8.975          6.404          164.4         -15.38         -60.08          33.91          130.6
    0.1714              -45.45          29.29          49.55          63.72         -8.975          6.403          164.4         -15.38         -60.09          33.93          130.6
    0.2057              -45.45          29.29          49.54          63.71         -8.974          6.401          164.4         -15.38         -60.11          33.95          130.6
    0.2399              -45.45          29.29          49.54          63.71         -8.974          6.399          164.4         -15.38         -60.12          33.97          130.6
    0.2742              -45.46          29.29          49.53           63.7         -8.974          6.397          164.4         -15.38         -60.14           34.0          130.5
    0.3085              -45.46          29.29          49.52           63.7         -8.974          6.395          164.4         -15.38         -60.16          34.02          130.5
    0.3428              -45.46          29.29          49.51          63.69         -8.974          6.393          164.4         -15.38         -60.17          34.05          130.5
     0.377              -45.47          29.29          49.49          63.68         -8.974          6.391          164.4         -15.38         -60.19          34.08          130.5
    0.4113              -45.47          29.29          49.48          63.67         -8.973          6.389          164.4         -15.37         -60.21          34.11          130.4
    0.4456              -45.48          29.29          49.47          63.66         -8.973          6.386          164.4         -15.37         -60.24          34.15          130.4
    0.4799              -45.48          29.29          49.45          63.65         -8.973          6.383          164.4         -15.37         -60.26          34.18          130.3
    0.5141              -45.49          29.29          49.44          63.64         -8.973           6.38          164.4         -15.37         -60.29          34.22          130.3
    0.5484              -45.49          29.29          49.42          63.63         -8.972          6.377          164.4         -15.37         -60.32          34.27          130.2
    0.5827               -45.5          29.28           49.4          63.62         -8.972          6.373          164.4         -15.36         -60.35          34.32          130.2
     0.617               -45.5          29.28          49.38          63.61         -8.972          6.369          164.4         -15.36         -60.39          34.37          130.1
    0.6512              -45.51          29.28          49.36          63.59         -8.971          6.365          164.5         -15.36         -60.42          34.42          130.1
    0.6855              -45.52          29.28          49.33          63.58         -8.971           6.36          164.5         -15.35         -60.47          34.49          130.0
    0.7198              -45.53          29.28          49.31          63.56          -8.97          6.354          164.5         -15.35         -60.51          34.56          129.9
    0.7541              -45.54          29.28          49.28          63.54          -8.97          6.349          164.5         -15.35         -60.56          34.63          129.9
    0.7883              -45.55          29.28          49.24          63.52         -8.969          6.342          164.5         -15.34         -60.62          34.72          129.8
    0.8226              -45.56          29.28          49.21          63.49         -8.969          6.335          164.5         -15.34         -60.68          34.81          129.7
    0.8569              -45.58          29.28          49.16          63.47         -8.968          6.327          164.5         -15.33         -60.75          34.91          129.5
    0.8912              -45.59          29.28          49.12          63.44         -8.967          6.318          164.5         -15.32         -60.83          35.03          129.4
    0.9254              -45.61          29.28          49.07           63.4         -8.966          6.308          164.5         -15.32         -60.92          35.16          129.3
    0.9597              -45.63          29.28          49.01          63.37         -8.965          6.296          164.6         -15.31         -61.02          35.31          129.1
     0.994              -45.65          29.27          48.94          63.32         -8.964          6.283          164.6          -15.3         -61.13          35.48          128.9
     1.028              -45.68          29.27          48.86          63.27         -8.963          6.268          164.6         -15.29         -61.26          35.67          128.7
     1.063              -45.71          29.27          48.78          63.22         -8.961          6.251          164.6         -15.28         -61.41          35.89          128.5
     1.097              -45.74          29.27          48.67          63.15         -8.959          6.231          164.6         -15.26         -61.59          36.15          128.2
     1.131              -45.78          29.26          48.56          63.07         -8.957          6.208          164.7         -15.25         -61.78          36.45          127.9
     1.165              -45.82          29.26          48.42          62.99         -8.955          6.182          164.7         -15.23         -62.02          36.79          127.5
       1.2              -45.88          29.26          48.26          62.88         -8.952           6.15          164.8         -15.21         -62.29           37.2          127.1
     1.234              -45.94          29.25          48.06          62.76         -8.949          6.112          164.8         -15.18         -62.62          37.69          126.5
     1.268              -46.02          29.25          47.83          62.61         -8.945          6.067          164.9         -15.15         -63.01          38.27          125.9
